<svg id="Layer_1" data-name="Layer 1" xmlns="http://www.w3.org/2000/svg" xmlns:xlink="http://www.w3.org/1999/xlink" viewBox="0 0 940.01 841.48"><defs><style>.cls-1{fill:url(#linear-gradient);}.cls-2{fill:url(#linear-gradient-2);}.cls-3{fill:url(#linear-gradient-3);}.cls-4{fill:url(#linear-gradient-4);}</style><linearGradient id="linear-gradient" x1="189.69" y1="901.99" x2="625.13" y2="230.17" gradientUnits="userSpaceOnUse"><stop offset="0" stop-color="#22418a"/><stop offset="1" stop-color="#58c7dd"/></linearGradient><linearGradient id="linear-gradient-2" x1="160.77" y1="845.43" x2="596.21" y2="173.61" xlink:href="#linear-gradient"/><linearGradient id="linear-gradient-3" x1="191.06" y1="975.97" x2="134.9" y2="319.33" xlink:href="#linear-gradient"/><linearGradient id="linear-gradient-4" x1="868.47" y1="956.46" x2="812.31" y2="299.82" xlink:href="#linear-gradient"/></defs><title>logo with {} (svg)</title><path class="cls-1" d="M618.36,577.62c3.08-1.93,6.11-3.92,9.07-6,1.5-1,2.91-2.07,4.38-3.19,46.14-34.62,74.71-89.68,74.71-157,0-57-22.78-98.55-53.77-127a168.64,168.64,0,0,0-43.29-27.93,202.32,202.32,0,0,0-19.92-7.81l24.79-27.7,1.93-2.16.32-.35,18-20.42a7.3,7.3,0,0,0,.66-.86,6.55,6.55,0,0,0-5.47-10H577.41a6.41,6.41,0,0,0-4.89,2.28L549.3,216.74l-.54.64-16.16,18.8a575.11,575.11,0,0,0-68.8-3.71H313.7a9.59,9.59,0,0,0-9.59,9.62V370.21a9.62,9.62,0,0,0,9.56,9.59h72.2a9.62,9.62,0,0,0,9.59-9.59V297.7c0-13.16.81-21.2,2.51-26.38,1.41-4.38,3.48-6.71,6.27-8.41,6.77-5,23-8.7,53.48-8.7a332.24,332.24,0,0,1,55.76,4.26l-2.68,3.11-15.93,18.58L421.18,366l-7.32,8.52c-5.41,6.08-14.22,16.56-14.22,16.56v-.37a14.28,14.28,0,0,0-.12,18.63l.12.17v-.17s5.53,6.54,11.57,13.77l3.4,4L517,548.25l14.08,16.67,13.14,15.52C521.92,588.59,496.14,593,467,593c-40.24,0-62.18-8.21-69.52-34.82-2-6.94-2.88-15.14-2.88-24.79V426.63A9.63,9.63,0,0,0,385,417H314.1c-.31,0-.66,0-1,.06l-.86.11a9.66,9.66,0,0,0-7.57,7.61c0,.28-.09.57-.12.86s-.06.63-.06,1V549.48a9.37,9.37,0,0,0,9.39,9.36H337c1.24,0,2.53,0,3.74,0a21.14,21.14,0,0,0,3.83-.11,4,4,0,0,1,2.74.23,4.09,4.09,0,0,1,1.12,1.58,30.25,30.25,0,0,1,2,7.95c1.73,11.64,2.19,23.56,3.51,35.22.47,4.06.87,8.12,1.19,12.21,3.6,46.31-3,93.43-33.67,130.63a67.42,67.42,0,0,1-9.62,9.77,197.39,197.39,0,0,1-18.29,15.49v32.51a8.52,8.52,0,0,0,12.3,7.67c72.46-35.86,89.36-133.08,92.39-196.07h35c48.38,0,90.8-4.61,128-15.49l38.19,45.16a6.62,6.62,0,0,0,5,2.3h61.63a6.52,6.52,0,0,0,4.89-10.86ZM595.73,552l-12.16-13.77-21.34-24.16L461.67,400.19a6.55,6.55,0,0,1,0-8.7l80.69-90.19,22-24.6,1.73-1.93c1.47.81,2.94,1.64,4.38,2.48,4.63,2.68,9.1,5.53,13.27,8.52,40.87,29.32,60.08,75.26,60.08,133.92,0,47.92-12.38,89.27-37,119.92A142.64,142.64,0,0,1,595.73,552Z" transform="translate(-17.28 -49.02)"/><polygon class="cls-2" points="598.98 169.74 597.08 171.9 597.05 171.9 598.98 169.74"/><path class="cls-3" d="M142.65,594.06V732.77q0,68.87,19,99.15T228,870q15.1,1.9,15.12,9.53,0,11-30.82,11H181.49q-50.88,0-77.3-36.34T77.77,747.57v-141q0-49.76-11-76.1T25.57,480.74q-8.3-6.35-8.29-11.22,0-4.39,8.29-10.74Q55.81,435.37,66.79,409t11-75.61V192q0-70.24,26.42-106.59T181.49,49h30.83q31.29,0,30.82,11-.49,8.59-18,11.46Q177.27,80.25,160,108.82t-17.32,98.42V345.46q0,75.71-39,107.45l-9.75,7.82q-7.32,5.86-7.32,8.79,0,3.42,7.32,9.27l9.75,7.82Q142.65,517.87,142.65,594.06Z" transform="translate(-17.28 -49.02)"/><path class="cls-4" d="M871,486.61l9.76-7.82q7.31-5.85,7.31-9.27c0-2-2.44-4.88-7.31-8.79L871,452.91q-39-31.74-39-107.45V207.24q0-69.84-17.31-98.42T749.48,71.46Q731.93,68.6,731.43,60,731,49,762.26,49h30.82Q844,49,870.39,85.36T896.8,192V333.41q0,49.29,11,75.62T949,458.78q8.29,6.35,8.29,10.74,0,4.88-8.29,11.22-30.24,23.42-41.22,49.75t-11,76.1v141q0,70.24-26.41,106.59T793.08,890.5H762.26q-30.82,0-30.83-11,0-7.62,15.13-9.53,47.31-7.82,66.34-38.09t19-99.15V594.06Q831.92,517.88,871,486.61Z" transform="translate(-17.28 -49.02)"/></svg>